<svg width="390" height="87" viewBox="0 0 390 87" fill="none" xmlns="http://www.w3.org/2000/svg">
<path d="M43.5845 0C40.3074 0 37.0304 0.32453 33.7534 1.13585C33.7534 1.29811 33.7534 1.46038 33.7534 1.62264V54.3585C33.7534 55.4943 32.7703 56.3057 31.7872 56.3057H27.8547C27.0355 56.3057 26.3801 55.6566 26.3801 54.8453V3.40755C10.8142 9.89811 0 25.1509 0 42.6755C0 66.366 19.4983 85.5132 43.7483 85.5132C67.9983 85.5132 87.3328 66.366 87.3328 42.8377C87.3328 19.3094 67.6706 0 43.5845 0ZM42.7652 60.5245C42.7652 61.4981 41.9459 62.3094 40.9628 62.3094H37.0304C36.0473 62.3094 35.228 61.4981 35.228 60.5245V33.4264C35.228 32.4528 36.0473 31.6415 37.0304 31.6415H40.9628C41.9459 31.6415 42.7652 32.4528 42.7652 33.4264V60.5245ZM51.6132 63.1208C51.6132 64.0943 50.7939 64.9057 49.8108 64.9057H45.8784C44.8953 64.9057 44.076 64.0943 44.076 63.1208V30.8302C44.076 29.8566 44.8953 29.0453 45.8784 29.0453H49.8108C50.7939 29.0453 51.6132 29.8566 51.6132 30.8302V63.1208ZM60.4611 58.2528C60.4611 59.2264 59.6419 60.0377 58.6588 60.0377H54.7263C53.7432 60.0377 52.924 59.2264 52.924 58.2528V36.0226C52.924 35.0491 53.7432 34.2377 54.7263 34.2377H58.6588C59.6419 34.2377 60.4611 35.0491 60.4611 36.0226V58.2528Z" fill="#FF005C"/>
<path d="M43.5845 0C40.3074 0 37.0304 0.32453 33.7534 1.13585C33.7534 1.29811 33.7534 1.46038 33.7534 1.62264V54.3585C33.7534 55.4943 32.7703 56.3057 31.7872 56.3057H27.8547C27.0355 56.3057 26.3801 55.6566 26.3801 54.8453V3.40755C10.8142 9.89811 0 25.1509 0 42.6755C0 66.366 19.4983 85.5132 43.7483 85.5132C67.9983 85.5132 87.3328 66.366 87.3328 42.8377C87.3328 19.3094 67.6706 0 43.5845 0ZM42.7652 60.5245C42.7652 61.4981 41.9459 62.3094 40.9628 62.3094H37.0304C36.0473 62.3094 35.228 61.4981 35.228 60.5245V33.4264C35.228 32.4528 36.0473 31.6415 37.0304 31.6415H40.9628C41.9459 31.6415 42.7652 32.4528 42.7652 33.4264V60.5245ZM51.6132 63.1208C51.6132 64.0943 50.7939 64.9057 49.8108 64.9057H45.8784C44.8953 64.9057 44.076 64.0943 44.076 63.1208V30.8302C44.076 29.8566 44.8953 29.0453 45.8784 29.0453H49.8108C50.7939 29.0453 51.6132 29.8566 51.6132 30.8302V63.1208ZM60.4611 58.2528C60.4611 59.2264 59.6419 60.0377 58.6588 60.0377H54.7263C53.7432 60.0377 52.924 59.2264 52.924 58.2528V36.0226C52.924 35.0491 53.7432 34.2377 54.7263 34.2377H58.6588C59.6419 34.2377 60.4611 35.0491 60.4611 36.0226V58.2528Z" fill="url(#paint0_linear)" fill-opacity="0.4"/>
<path d="M110 20.381C110 19.2451 110.492 18.2715 111.311 17.4602C112.13 16.6489 113.113 16.1621 114.424 16.1621C115.571 16.1621 116.554 16.6489 117.537 17.4602C118.356 18.2715 118.848 19.2451 118.848 20.381V32.5508C122.453 29.9546 126.549 28.6564 131.301 28.6564C137.199 28.6564 142.115 30.6036 146.211 34.6602C150.307 38.7168 152.438 43.5848 152.438 49.264C152.438 54.9432 150.307 59.8112 146.211 63.8678C142.115 67.9244 137.199 69.8715 131.301 69.8715C125.402 69.8715 120.486 67.9244 116.39 63.8678C112.294 59.9734 110.328 55.1055 110.164 49.4263L110 20.381ZM122.289 57.864C124.747 60.298 127.696 61.4338 131.137 61.4338C134.578 61.4338 137.527 60.298 139.985 57.864C142.443 55.43 143.59 52.5093 143.59 49.264C143.59 45.8565 142.443 42.9357 139.985 40.5017C137.527 38.0678 134.578 36.9319 131.137 36.9319C127.696 36.9319 124.747 38.0678 122.289 40.5017C120.159 42.6112 119.012 44.8829 118.684 47.6414V49.264C118.684 49.5885 118.684 49.7508 118.684 50.0753C118.848 53.1583 119.995 55.7546 122.289 57.864Z" fill="#FF005C"/>
<path d="M110 20.381C110 19.2451 110.492 18.2715 111.311 17.4602C112.13 16.6489 113.113 16.1621 114.424 16.1621C115.571 16.1621 116.554 16.6489 117.537 17.4602C118.356 18.2715 118.848 19.2451 118.848 20.381V32.5508C122.453 29.9546 126.549 28.6564 131.301 28.6564C137.199 28.6564 142.115 30.6036 146.211 34.6602C150.307 38.7168 152.438 43.5848 152.438 49.264C152.438 54.9432 150.307 59.8112 146.211 63.8678C142.115 67.9244 137.199 69.8715 131.301 69.8715C125.402 69.8715 120.486 67.9244 116.39 63.8678C112.294 59.9734 110.328 55.1055 110.164 49.4263L110 20.381ZM122.289 57.864C124.747 60.298 127.696 61.4338 131.137 61.4338C134.578 61.4338 137.527 60.298 139.985 57.864C142.443 55.43 143.59 52.5093 143.59 49.264C143.59 45.8565 142.443 42.9357 139.985 40.5017C137.527 38.0678 134.578 36.9319 131.137 36.9319C127.696 36.9319 124.747 38.0678 122.289 40.5017C120.159 42.6112 119.012 44.8829 118.684 47.6414V49.264C118.684 49.5885 118.684 49.7508 118.684 50.0753C118.848 53.1583 119.995 55.7546 122.289 57.864Z" fill="url(#paint1_linear)" fill-opacity="0.4"/>
<path d="M165.053 24.4377C163.906 24.4377 162.923 23.9509 161.94 23.1396C161.12 22.3283 160.629 21.3547 160.629 20.2189C160.629 19.083 161.12 18.1094 161.94 17.2981C162.759 16.4868 163.742 16 165.053 16C166.2 16 167.183 16.4868 168.166 17.2981C168.985 18.1094 169.477 19.083 169.477 20.2189C169.477 21.3547 168.985 22.3283 168.166 23.1396C167.347 23.9509 166.2 24.4377 165.053 24.4377ZM165.053 69.8717C163.906 69.8717 162.923 69.3849 161.94 68.5736C161.12 67.7623 160.629 66.7887 160.629 65.6528V32.5509C160.629 31.4151 161.12 30.4415 161.94 29.6302C162.759 28.8189 163.742 28.3321 165.053 28.3321C166.2 28.3321 167.183 28.8189 168.166 29.6302C168.985 30.4415 169.477 31.4151 169.477 32.5509V65.6528C169.477 66.7887 168.985 67.7623 168.166 68.5736C167.347 69.3849 166.364 69.8717 165.053 69.8717Z" fill="#FF005C"/>
<path d="M165.053 24.4377C163.906 24.4377 162.923 23.9509 161.94 23.1396C161.12 22.3283 160.629 21.3547 160.629 20.2189C160.629 19.083 161.12 18.1094 161.94 17.2981C162.759 16.4868 163.742 16 165.053 16C166.2 16 167.183 16.4868 168.166 17.2981C168.985 18.1094 169.477 19.083 169.477 20.2189C169.477 21.3547 168.985 22.3283 168.166 23.1396C167.347 23.9509 166.2 24.4377 165.053 24.4377ZM165.053 69.8717C163.906 69.8717 162.923 69.3849 161.94 68.5736C161.12 67.7623 160.629 66.7887 160.629 65.6528V32.5509C160.629 31.4151 161.12 30.4415 161.94 29.6302C162.759 28.8189 163.742 28.3321 165.053 28.3321C166.2 28.3321 167.183 28.8189 168.166 29.6302C168.985 30.4415 169.477 31.4151 169.477 32.5509V65.6528C169.477 66.7887 168.985 67.7623 168.166 68.5736C167.347 69.3849 166.364 69.8717 165.053 69.8717Z" fill="url(#paint2_linear)" fill-opacity="0.4"/>
<path d="M187.664 28.3318V20.5431C187.664 19.4072 188.155 18.4337 188.975 17.6223C189.794 16.811 190.777 16.3242 192.088 16.3242C193.235 16.3242 194.218 16.811 195.201 17.6223C196.02 18.4337 196.512 19.4072 196.512 20.5431V28.3318H201.263C202.41 28.3318 203.393 28.8186 204.377 29.6299C205.196 30.4412 205.687 31.4148 205.687 32.5506C205.687 33.6865 205.196 34.6601 204.377 35.4714C203.557 36.2827 202.574 36.7695 201.263 36.7695H196.512V65.4903C196.512 66.6261 196.02 67.5997 195.201 68.411C194.382 69.2223 193.399 69.7091 192.088 69.7091C190.941 69.7091 189.958 69.2223 188.975 68.411C188.155 67.5997 187.664 66.6261 187.664 65.4903V36.7695H182.748C181.601 36.7695 180.618 36.2827 179.635 35.4714C178.816 34.6601 178.324 33.6865 178.324 32.5506C178.324 31.4148 178.816 30.4412 179.635 29.6299C180.454 28.8186 181.437 28.3318 182.748 28.3318H187.664Z" fill="#FF005C"/>
<path d="M187.664 28.3318V20.5431C187.664 19.4072 188.155 18.4337 188.975 17.6223C189.794 16.811 190.777 16.3242 192.088 16.3242C193.235 16.3242 194.218 16.811 195.201 17.6223C196.02 18.4337 196.512 19.4072 196.512 20.5431V28.3318H201.263C202.41 28.3318 203.393 28.8186 204.377 29.6299C205.196 30.4412 205.687 31.4148 205.687 32.5506C205.687 33.6865 205.196 34.6601 204.377 35.4714C203.557 36.2827 202.574 36.7695 201.263 36.7695H196.512V65.4903C196.512 66.6261 196.02 67.5997 195.201 68.411C194.382 69.2223 193.399 69.7091 192.088 69.7091C190.941 69.7091 189.958 69.2223 188.975 68.411C188.155 67.5997 187.664 66.6261 187.664 65.4903V36.7695H182.748C181.601 36.7695 180.618 36.2827 179.635 35.4714C178.816 34.6601 178.324 33.6865 178.324 32.5506C178.324 31.4148 178.816 30.4412 179.635 29.6299C180.454 28.8186 181.437 28.3318 182.748 28.3318H187.664Z" fill="url(#paint3_linear)" fill-opacity="0.4"/>
<path d="M222.567 28.4941C223.714 28.4941 224.697 28.8187 225.516 29.63C226.335 30.4413 226.663 31.4149 226.663 32.5507C226.663 33.6866 226.335 34.6602 225.516 35.4715C224.697 36.2828 223.714 36.7696 222.567 36.7696C221.912 36.7696 221.42 36.9319 221.092 37.4187C220.765 37.7432 220.437 38.23 220.437 38.879C220.437 39.5281 220.601 40.0149 221.092 40.3394C221.42 40.664 222.075 40.9885 222.567 40.9885C226.663 40.9885 230.104 42.4489 233.053 45.2073C236.003 47.9658 237.314 51.3734 237.314 55.43C237.314 59.4866 235.839 62.8941 233.053 65.6526C230.104 68.4111 226.663 69.8715 222.567 69.8715C218.471 69.8715 215.03 68.4111 212.08 65.6526C209.131 62.8941 207.82 59.4866 207.82 55.43C207.82 54.2941 208.312 53.3206 209.131 52.5092C209.95 51.6979 210.933 51.3734 212.08 51.3734C213.227 51.3734 214.21 51.6979 215.03 52.5092C215.849 53.3206 216.177 54.2941 216.177 55.43C216.177 57.2149 216.832 58.6753 217.979 59.8111C219.126 60.947 220.765 61.596 222.403 61.596C224.205 61.596 225.68 60.947 226.827 59.8111C228.138 58.6753 228.629 57.2149 228.629 55.43C228.629 53.6451 227.974 52.1847 226.827 51.0489C225.516 49.913 224.042 49.264 222.403 49.264C219.454 49.264 216.996 48.2904 214.866 46.1809C212.736 44.2338 211.753 41.7998 211.753 38.879C211.753 35.9583 212.736 33.5243 214.866 31.5772C217.16 29.4677 219.618 28.4941 222.567 28.4941Z" fill="#FF005C"/>
<path d="M222.567 28.4941C223.714 28.4941 224.697 28.8187 225.516 29.63C226.335 30.4413 226.663 31.4149 226.663 32.5507C226.663 33.6866 226.335 34.6602 225.516 35.4715C224.697 36.2828 223.714 36.7696 222.567 36.7696C221.912 36.7696 221.42 36.9319 221.092 37.4187C220.765 37.7432 220.437 38.23 220.437 38.879C220.437 39.5281 220.601 40.0149 221.092 40.3394C221.42 40.664 222.075 40.9885 222.567 40.9885C226.663 40.9885 230.104 42.4489 233.053 45.2073C236.003 47.9658 237.314 51.3734 237.314 55.43C237.314 59.4866 235.839 62.8941 233.053 65.6526C230.104 68.4111 226.663 69.8715 222.567 69.8715C218.471 69.8715 215.03 68.4111 212.08 65.6526C209.131 62.8941 207.82 59.4866 207.82 55.43C207.82 54.2941 208.312 53.3206 209.131 52.5092C209.95 51.6979 210.933 51.3734 212.08 51.3734C213.227 51.3734 214.21 51.6979 215.03 52.5092C215.849 53.3206 216.177 54.2941 216.177 55.43C216.177 57.2149 216.832 58.6753 217.979 59.8111C219.126 60.947 220.765 61.596 222.403 61.596C224.205 61.596 225.68 60.947 226.827 59.8111C228.138 58.6753 228.629 57.2149 228.629 55.43C228.629 53.6451 227.974 52.1847 226.827 51.0489C225.516 49.913 224.042 49.264 222.403 49.264C219.454 49.264 216.996 48.2904 214.866 46.1809C212.736 44.2338 211.753 41.7998 211.753 38.879C211.753 35.9583 212.736 33.5243 214.866 31.5772C217.16 29.4677 219.618 28.4941 222.567 28.4941Z" fill="url(#paint4_linear)" fill-opacity="0.4"/>
<path d="M281.879 34.4979C285.976 38.5545 288.106 43.4224 288.106 49.1017C288.106 54.7809 285.976 59.6489 281.879 63.7055C277.783 67.7621 272.867 69.7092 266.969 69.7092C261.07 69.7092 256.155 67.7621 252.058 63.7055C247.962 59.6489 245.832 54.7809 245.832 49.1017C245.832 43.4224 247.962 38.5545 252.058 34.4979C256.155 30.4413 261.07 28.4941 266.969 28.4941C272.704 28.4941 277.619 30.6036 281.879 34.4979ZM266.969 36.9319C263.528 36.9319 260.579 38.0677 258.121 40.5017C255.663 42.9356 254.516 45.8564 254.516 49.1017C254.516 52.5092 255.663 55.43 258.121 57.864C260.579 60.2979 263.528 61.4338 266.969 61.4338C270.41 61.4338 273.359 60.2979 275.817 57.864C278.275 55.43 279.422 52.5092 279.422 49.1017C279.422 45.6941 278.275 42.7734 275.817 40.5017C273.359 38.0677 270.41 36.9319 266.969 36.9319Z" fill="#FF005C"/>
<path d="M281.879 34.4979C285.976 38.5545 288.106 43.4224 288.106 49.1017C288.106 54.7809 285.976 59.6489 281.879 63.7055C277.783 67.7621 272.867 69.7092 266.969 69.7092C261.07 69.7092 256.155 67.7621 252.058 63.7055C247.962 59.6489 245.832 54.7809 245.832 49.1017C245.832 43.4224 247.962 38.5545 252.058 34.4979C256.155 30.4413 261.07 28.4941 266.969 28.4941C272.704 28.4941 277.619 30.6036 281.879 34.4979ZM266.969 36.9319C263.528 36.9319 260.579 38.0677 258.121 40.5017C255.663 42.9356 254.516 45.8564 254.516 49.1017C254.516 52.5092 255.663 55.43 258.121 57.864C260.579 60.2979 263.528 61.4338 266.969 61.4338C270.41 61.4338 273.359 60.2979 275.817 57.864C278.275 55.43 279.422 52.5092 279.422 49.1017C279.422 45.6941 278.275 42.7734 275.817 40.5017C273.359 38.0677 270.41 36.9319 266.969 36.9319Z" fill="url(#paint5_linear)" fill-opacity="0.4"/>
<path d="M318.093 28.4941C323.991 28.8187 328.907 30.9281 332.676 34.6602C336.772 38.5545 338.738 43.4224 338.902 49.1017V65.0036C338.902 66.6262 338.41 67.7621 337.591 68.5734C336.772 69.3847 335.789 69.8715 334.478 69.8715C333.331 69.8715 332.348 69.3847 331.365 68.5734C330.546 67.7621 330.054 66.6262 330.054 65.0036V49.1017C330.054 48.7772 330.054 48.6149 330.054 48.2904C329.89 45.2073 328.743 42.6111 326.449 40.5017C323.991 38.0677 321.042 36.9319 317.601 36.9319H317.437C313.997 36.9319 311.047 38.0677 308.589 40.5017C306.296 42.6111 305.149 45.2073 304.985 48.2904C304.985 48.6149 304.985 48.7772 304.985 49.1017V65.0036C304.985 66.6262 304.493 67.7621 303.674 68.5734C302.855 69.3847 301.872 69.8715 300.561 69.8715C299.414 69.8715 298.431 69.3847 297.448 68.5734C296.628 67.7621 296.137 66.464 296.137 65.0036V49.1017C296.137 43.4224 298.267 38.7168 302.363 34.6602C306.132 30.9281 311.047 28.8187 316.946 28.4941H318.093Z" fill="#FF005C"/>
<path d="M318.093 28.4941C323.991 28.8187 328.907 30.9281 332.676 34.6602C336.772 38.5545 338.738 43.4224 338.902 49.1017V65.0036C338.902 66.6262 338.41 67.7621 337.591 68.5734C336.772 69.3847 335.789 69.8715 334.478 69.8715C333.331 69.8715 332.348 69.3847 331.365 68.5734C330.546 67.7621 330.054 66.6262 330.054 65.0036V49.1017C330.054 48.7772 330.054 48.6149 330.054 48.2904C329.89 45.2073 328.743 42.6111 326.449 40.5017C323.991 38.0677 321.042 36.9319 317.601 36.9319H317.437C313.997 36.9319 311.047 38.0677 308.589 40.5017C306.296 42.6111 305.149 45.2073 304.985 48.2904C304.985 48.6149 304.985 48.7772 304.985 49.1017V65.0036C304.985 66.6262 304.493 67.7621 303.674 68.5734C302.855 69.3847 301.872 69.8715 300.561 69.8715C299.414 69.8715 298.431 69.3847 297.448 68.5734C296.628 67.7621 296.137 66.464 296.137 65.0036V49.1017C296.137 43.4224 298.267 38.7168 302.363 34.6602C306.132 30.9281 311.047 28.8187 316.946 28.4941H318.093Z" fill="url(#paint6_linear)" fill-opacity="0.4"/>
<path d="M380.847 65.8149C377.243 68.4111 373.146 69.7092 368.395 69.7092C362.496 69.7092 357.58 67.7621 353.484 63.7055C349.388 59.6489 347.258 54.7809 347.258 49.1017C347.258 43.4224 349.388 38.5545 353.484 34.4979C357.58 30.4413 362.496 28.4941 368.395 28.4941C374.293 28.4941 379.209 30.4413 383.305 34.4979C387.401 38.5545 389.531 43.4224 389.531 49.1017V65.4904C389.531 65.6526 389.531 65.9772 389.531 66.1394C389.368 71.6564 387.401 76.3621 383.305 80.2564C379.209 84.313 374.293 86.2602 368.395 86.2602H368.231C367.084 86.2602 366.101 85.7734 365.118 84.9621C364.135 84.1507 363.807 83.1772 363.807 82.0413C363.807 80.9055 364.298 79.9319 365.118 79.1206C365.937 78.3092 366.92 77.8225 368.231 77.8225C368.395 77.8225 368.558 77.8225 368.886 77.8225C372.163 77.6602 374.949 76.5243 377.406 74.2526C379.7 71.9809 380.847 69.0602 380.847 65.8149ZM368.395 36.7696C364.954 36.7696 362.004 37.9055 359.547 40.3394C357.089 42.7734 355.942 45.6941 355.942 48.9394C355.942 52.347 357.089 55.2677 359.547 57.7017C362.004 60.1357 364.954 61.2715 368.395 61.2715C371.836 61.2715 374.785 60.1357 377.243 57.7017C379.7 55.2677 380.847 52.347 380.847 48.9394C380.847 45.5319 379.7 42.6111 377.243 40.3394C374.785 38.0677 371.836 36.7696 368.395 36.7696Z" fill="#FF005C"/>
<path d="M380.847 65.8149C377.243 68.4111 373.146 69.7092 368.395 69.7092C362.496 69.7092 357.58 67.7621 353.484 63.7055C349.388 59.6489 347.258 54.7809 347.258 49.1017C347.258 43.4224 349.388 38.5545 353.484 34.4979C357.58 30.4413 362.496 28.4941 368.395 28.4941C374.293 28.4941 379.209 30.4413 383.305 34.4979C387.401 38.5545 389.531 43.4224 389.531 49.1017V65.4904C389.531 65.6526 389.531 65.9772 389.531 66.1394C389.368 71.6564 387.401 76.3621 383.305 80.2564C379.209 84.313 374.293 86.2602 368.395 86.2602H368.231C367.084 86.2602 366.101 85.7734 365.118 84.9621C364.135 84.1507 363.807 83.1772 363.807 82.0413C363.807 80.9055 364.298 79.9319 365.118 79.1206C365.937 78.3092 366.92 77.8225 368.231 77.8225C368.395 77.8225 368.558 77.8225 368.886 77.8225C372.163 77.6602 374.949 76.5243 377.406 74.2526C379.7 71.9809 380.847 69.0602 380.847 65.8149ZM368.395 36.7696C364.954 36.7696 362.004 37.9055 359.547 40.3394C357.089 42.7734 355.942 45.6941 355.942 48.9394C355.942 52.347 357.089 55.2677 359.547 57.7017C362.004 60.1357 364.954 61.2715 368.395 61.2715C371.836 61.2715 374.785 60.1357 377.243 57.7017C379.7 55.2677 380.847 52.347 380.847 48.9394C380.847 45.5319 379.7 42.6111 377.243 40.3394C374.785 38.0677 371.836 36.7696 368.395 36.7696Z" fill="url(#paint7_linear)" fill-opacity="0.4"/>
<defs>
<linearGradient id="paint0_linear" x1="43.6664" y1="0" x2="43.6664" y2="85.5132" gradientUnits="userSpaceOnUse">
<stop stop-color="#00E0FF"/>
<stop offset="1" stop-color="#00E0FF" stop-opacity="0"/>
</linearGradient>
<linearGradient id="paint1_linear" x1="131.219" y1="16.1621" x2="131.219" y2="69.8715" gradientUnits="userSpaceOnUse">
<stop stop-color="#00E0FF"/>
<stop offset="1" stop-color="#00E0FF" stop-opacity="0"/>
</linearGradient>
<linearGradient id="paint2_linear" x1="165.053" y1="16" x2="165.053" y2="69.8717" gradientUnits="userSpaceOnUse">
<stop stop-color="#00E0FF"/>
<stop offset="1" stop-color="#00E0FF" stop-opacity="0"/>
</linearGradient>
<linearGradient id="paint3_linear" x1="192.006" y1="16.3242" x2="192.006" y2="69.7091" gradientUnits="userSpaceOnUse">
<stop stop-color="#00E0FF"/>
<stop offset="1" stop-color="#00E0FF" stop-opacity="0"/>
</linearGradient>
<linearGradient id="paint4_linear" x1="222.567" y1="28.4941" x2="222.567" y2="69.8715" gradientUnits="userSpaceOnUse">
<stop stop-color="#00E0FF"/>
<stop offset="1" stop-color="#00E0FF" stop-opacity="0"/>
</linearGradient>
<linearGradient id="paint5_linear" x1="266.969" y1="28.4941" x2="266.969" y2="69.7092" gradientUnits="userSpaceOnUse">
<stop stop-color="#00E0FF"/>
<stop offset="1" stop-color="#00E0FF" stop-opacity="0"/>
</linearGradient>
<linearGradient id="paint6_linear" x1="317.519" y1="28.4941" x2="317.519" y2="69.8715" gradientUnits="userSpaceOnUse">
<stop stop-color="#00E0FF"/>
<stop offset="1" stop-color="#00E0FF" stop-opacity="0"/>
</linearGradient>
<linearGradient id="paint7_linear" x1="368.395" y1="28.4941" x2="368.395" y2="86.2602" gradientUnits="userSpaceOnUse">
<stop stop-color="#00E0FF"/>
<stop offset="1" stop-color="#00E0FF" stop-opacity="0"/>
</linearGradient>
</defs>
</svg>
